<svg xmlns="http://www.w3.org/2000/svg" version="1.1" xmlns:xlink="http://www.w3.org/1999/xlink" viewBox="0 0 200 200"><rect width="200" height="200" fill="url('#gradient')"></rect><defs><linearGradient id="gradient" gradientTransform="rotate(45 0.5 0.5)"><stop offset="0%" stop-color="#472027"></stop><stop offset="100%" stop-color="#192025"></stop></linearGradient></defs><g><g fill="#ffffff" transform="matrix(6.0867132867132865,0,0,6.0867132867132865,42.47743359162258,142.66957762858252)" stroke="#c06a3e" stroke-width="0"><path d="M9.89-8.57L9.89-6.03L4.50-6.03L4.50-2.64L10.87-2.64L10.87 0L1.07 0L1.07-14.22L10.89-14.22L10.89-11.57L4.50-11.57L4.50-8.57L9.89-8.57ZM12.66-13.19L15.95-13.19L15.95-10.57L17.69-10.57L17.69-8.28L15.95-8.28L15.95-3.45Q15.95-2.85 16.16-2.62Q16.38-2.38 17.01-2.38L17.01-2.38Q17.50-2.38 17.83-2.44L17.83-2.44L17.83-0.09Q16.94 0.20 15.98 0.20L15.98 0.20Q14.28 0.20 13.47-0.61Q12.66-1.41 12.66-3.04L12.66-3.04L12.66-8.28L11.31-8.28L11.31-10.57L12.66-10.57L12.66-13.19Z"></path></g></g></svg>